# xmcd
#
# Track frame offsets: 
#        150
#        29963
#        46600
#        77355
#        104459
#        123567
#        150620
#        176138
#        197670
#        212630
#
# Disc length: 3122 seconds
#
# Revision: 1
# Processed by: cddbd v1.5.2PL0 Copyright (c) Steve Scherf et al.
# Submitted via: ExactAudioCopyFreeDBPlugin 1.0
#
DISCID=830c300a
DTITLE=Nick Schnebelen - Live In Kansas City
DYEAR=2017
DGENRE=Blues
TTITLE0=Fool
TTITLE1=Pain In My Mind
TTITLE2=Herbert Harper's Free Press News
TTITLE3=You Call That Love
TTITLE4=Bad Woman Blues
TTITLE5=Mean Town Blues
TTITLE6=Jonny Cheat
TTITLE7=Bad Disposition
TTITLE8=Schoolnight
TTITLE9=Conformity Blues (Instrumental)
EXTD=
EXTT0=
EXTT1=
EXTT2=
EXTT3=
EXTT4=
EXTT5=
EXTT6=
EXTT7=
EXTT8=
EXTT9=
PLAYORDER=
